<svg width="1200" height="675" viewBox="0 0 1200 675" fill="none" xmlns="http://www.w3.org/2000/svg">
  <rect width="1200" height="675" fill="#1a1a2e"/>
  <rect x="92" y="72" width="1016" height="531" rx="18" fill="#0f0f23" stroke="#ffcc80" stroke-opacity=".22"/>
  <rect x="134" y="118" width="450" height="439" fill="#ffadcb" stroke="#111" stroke-width="5"/>
  <rect x="584" y="118" width="482" height="439" fill="#ff9fc3" stroke="#111" stroke-width="5"/>
  <g opacity=".22">
    <path d="M139 144h923M139 196h923M139 248h923M139 300h923M139 352h923M139 404h923M139 456h923M139 508h923" stroke="#fff" stroke-width="1"/>
  </g>
  <text x="155" y="155" font-family="Inter, Arial, sans-serif" font-size="31" font-weight="800" fill="#fff7df">ebr</text>
  <text x="155" y="190" font-family="Inter, Arial, sans-serif" font-size="31" font-weight="800" fill="#fff7df">audio</text>
  <text x="155" y="225" font-family="Inter, Arial, sans-serif" font-size="31" font-weight="800" fill="#fff7df">tech</text>
  <text x="505" y="155" text-anchor="end" font-family="Inter, Arial, sans-serif" font-size="31" font-weight="800" fill="#fff7df">baxq</text>
  <text x="605" y="155" font-family="Inter, Arial, sans-serif" font-size="31" font-weight="800" fill="#fff7df">ebr</text>
  <text x="605" y="190" font-family="Inter, Arial, sans-serif" font-size="31" font-weight="800" fill="#fff7df">audio</text>
  <text x="605" y="225" font-family="Inter, Arial, sans-serif" font-size="31" font-weight="800" fill="#fff7df">tech</text>
  <text x="1044" y="155" text-anchor="end" font-family="Inter, Arial, sans-serif" font-size="31" font-weight="800" fill="#fff7df">ttsat</text>
  <g fill="#565656">
    <circle cx="245" cy="143" r="14"/><circle cx="474" cy="143" r="14"/><circle cx="245" cy="532" r="14"/><circle cx="474" cy="532" r="14"/>
    <circle cx="707" cy="143" r="14"/><circle cx="947" cy="143" r="14"/><circle cx="707" cy="532" r="14"/><circle cx="947" cy="532" r="14"/>
  </g>
  <g>
    <circle cx="315" cy="269" r="76" fill="#f8eedc" stroke="#fff7df" stroke-width="8"/>
    <circle cx="315" cy="455" r="76" fill="#f8eedc" stroke="#fff7df" stroke-width="8"/>
    <circle cx="455" cy="340" r="38" fill="#f8eedc" stroke="#fff7df" stroke-width="5"/>
    <circle cx="455" cy="455" r="38" fill="#f8eedc" stroke="#fff7df" stroke-width="5"/>
    <path d="M315 270l-21 42M315 455l28 38M455 340l15-30M455 455l-23-25" stroke="#111" stroke-width="7" stroke-linecap="round"/>
  </g>
  <g stroke="#fff7df" stroke-width="2" opacity=".9">
    <path d="M217 326a115 115 0 0 1 196-114"/>
    <path d="M217 512a115 115 0 0 1 196-114"/>
  </g>
  <g>
    <rect x="662" y="204" width="145" height="118" rx="9" fill="#fffaf0" stroke="#121212" stroke-width="3"/>
    <rect x="843" y="204" width="145" height="118" rx="9" fill="#fffaf0" stroke="#121212" stroke-width="3"/>
    <path d="M685 300c16 11 81 14 98 0M866 300c16 11 81 14 98 0" stroke="#111" stroke-width="2" opacity=".45"/>
    <path d="M735 298l-12-48M916 298l16-42" stroke="#111" stroke-width="5" stroke-linecap="round"/>
    <text x="735" y="345" text-anchor="middle" font-family="Inter, Arial, sans-serif" font-size="18" font-weight="800" fill="#fff7df">l/m</text>
    <text x="916" y="345" text-anchor="middle" font-family="Inter, Arial, sans-serif" font-size="18" font-weight="800" fill="#fff7df">r/s</text>
    <circle cx="735" cy="446" r="76" fill="#f8eedc" stroke="#fff7df" stroke-width="8"/>
    <circle cx="916" cy="446" r="76" fill="#f8eedc" stroke="#fff7df" stroke-width="8"/>
    <path d="M735 446l-32 45M916 446l34 42" stroke="#111" stroke-width="7" stroke-linecap="round"/>
    <text x="735" y="548" text-anchor="middle" font-family="Inter, Arial, sans-serif" font-size="30" font-weight="800" fill="#fff7df">drive</text>
    <text x="916" y="548" text-anchor="middle" font-family="Inter, Arial, sans-serif" font-size="30" font-weight="800" fill="#fff7df">drive</text>
  </g>
  <path d="M167 593c141-75 190-75 334 0M633 593c150-75 250-75 401 0" stroke="#ffcc80" stroke-opacity=".55" stroke-width="3"/>
  <text x="600" y="638" text-anchor="middle" font-family="Inter, Arial, sans-serif" font-size="28" font-weight="800" fill="#ffcc80">BQST · baxandall eq + saturation plugin built in 2 days with codex</text>
</svg>
