<?xml version="1.0" encoding="utf-8"?>
<!DOCTYPE svg PUBLIC "-//W3C//DTD SVG 20010904//EN" "http://www.w3.org/TR/2001/REC-SVG-20010904/DTD/svg10.dtd">
<svg height="347.000000pt" preserveAspectRatio="xMidYMid meet" version="1.0" viewBox="0 0 347.000000 347.000000" width="347.000000pt" xmlns="http://www.w3.org/2000/svg">
<g stroke="none" transform="translate(0.000000,347.000000) scale(0.100000,-0.100000)">
<path d="M370 3461 c-89 -19 -151 -87 -170 -186 -12 -66 -190 -2904 -190 -3032 0 -105 31 -171 98 -211 l47 -27 1480 0 1480 0 46 28 c60 36 95 87 109 162 12 66 190 2904 190 3032 0 105 -31 171 -98 211 l-47 27 -1455 1 c-800 1 -1471 -1 -1490 -5z m650 -488 c0 -222 0 -227 -19 -208 -20 23 -347 390 -369 418 -14 16 -4 17 186 17 l202 0 0 -227z m2167 165 c-3 -35 -25 -376 -48 -758 -23 -382 -43 -696 -44 -697 -1 -2 -46 19 -101 47 -327 163 -675 187 -996 69 -46 -16 -88 -31 -94 -32 -5 -1 -141 145 -302 324 -316 354 -306 339 -208 339 74 0 251 32 342 61 144 46 235 113 286 213 17 32 22 60 22 126 1 74 -3 93 -27 142 -44 90 -136 160 -267 205 l-65 22 754 1 754 0 -6 -62z m-2533 -328 l155 -175 -92 -13 c-51 -7 -137 -28 -192 -46 -55 -19 -101 -33 -102 -32 -1 0 5 96 13 211 7 116 14 226 14 245 l0 35 24 -25 c14 -14 94 -104 180 -200z m766 195 c106 -9 246 -41 307 -71 120 -58 122 -139 5 -198 -78 -39 -195 -62 -414 -81 l-68 -6 0 186 0 186 48 -5 c26 -3 81 -8 122 -11z m-412 -597 c8 -8 12 -64 12 -185 l0 -174 -47 5 c-27 3 -82 8 -123 11 -172 14 -336 67 -380 122 -85 108 102 200 460 226 25 2 50 4 56 5 5 1 15 -3 22 -10z m665 -759 c-16 -16 -139 -81 -208 -111 -339 -145 -670 -143 -1018 7 l-89 38 6 41 c3 23 8 105 12 184 4 78 8 142 9 142 2 0 32 -14 67 -30 133 -62 381 -100 661 -100 l137 0 0 160 0 161 216 -242 c118 -133 212 -245 207 -250z" fill="currentColor"/>
</g>
</svg>