<svg xmlns="http://www.w3.org/2000/svg" viewBox="0 0 400 300" fill="none" stroke="currentColor" stroke-width="2" stroke-linecap="round" stroke-linejoin="round" aria-hidden="true">
  <style>
    .swiss-website-frame { transition: transform 0.6s cubic-bezier(.2,.7,.2,1); }
    .swiss-website-border { transition: stroke 0.6s ease; }
    @media (prefers-reduced-motion: no-preference) {
      .swiss-card.is-hover .swiss-website-back { transform: translate(28px, 24px); }
      .swiss-card.is-hover .swiss-website-middle { transform: translate(28px, 24px); }
      .swiss-card.is-hover .swiss-website-front { transform: translate(-56px, -48px); }
      .swiss-card.is-hover .swiss-website-border { stroke: var(--accent); }
    }
    @media (prefers-reduced-motion: reduce) { .swiss-website-frame, .swiss-website-border { transition: none; } }
  </style>
  <g fill="currentColor" stroke="none" font-family="General Sans, sans-serif" font-size="10" letter-spacing="1.5" opacity=".55">
    
    
  </g>
  <g class="swiss-website-frame swiss-website-back" stroke-opacity=".2">
    <rect x="72" y="78" width="200" height="112"/>
    <path d="M72 98h200M84 88h3m7 0h3m7 0h3"/>
  </g>
  <g class="swiss-website-frame swiss-website-middle" stroke-opacity=".4">
    <rect x="100" y="102" width="200" height="112"/>
    <path d="M100 122h200M112 112h3m7 0h3m7 0h3"/>
  </g>
  <g class="swiss-website-frame swiss-website-front">
    <rect class="swiss-website-border" x="128" y="126" width="200" height="112"/>
    <path d="M128 146h200M140 136h3m7 0h3m7 0h3"/>
    <path d="M146 164h60M146 176h42M146 216h68M244 192v-20m8 32v-44m8 54v-64m8 72v-80m8 66v-52m8 44v-36m8 28v-20" stroke-opacity=".6"/>
  </g>
</svg>
